<?xml version="1.0" encoding="utf-8"?>
<!-- Generator: Adobe Illustrator 23.0.1, SVG Export Plug-In . SVG Version: 6.00 Build 0)  -->
<svg version="1.1" id="Layer_1" xmlns="https://www.w3.org/2000/svg" xmlns:xlink="https://www.w3.org/1999/xlink" x="0px" y="0px"
	 viewBox="0 0 800 800" style="enable-background:new 0 0 800 800;" xml:space="preserve">
<style type="text/css">
	.st0{fill:#8D71E2;}
	.st1{fill:#7652CE;}
	.st2{fill:#7851A9;}
</style>
<g>
	<circle cx="400" cy="400" r="388"/>
	<g>
		<path class="st0" d="M599.35,239.05L599.35,239.05c0,0,0.01,0.01,0.01,0.01L599.35,239.05z"/>
		<path class="st0" d="M641.71,291.03c-1.82-8.53-6.84-16.92-15.08-25.18c-5.31-5.33-10.59-8.47-15.75-9.45
			c-5.25-0.98-9.9-0.28-14.11,2.21c-4.18,2.45-9.35,6.72-15.49,12.84l-57.22,57.08c-7.32-11.37-9.83-22.93-7.5-34.63
			c2.33-11.73,7.97-22.07,16.91-30.99c16.96-16.92,33.38-21.38,49.3-13.4l16.57-10.45c-9.44-9.93-22.14-14.43-38.11-13.45
			c-15.94,0.95-30.73,8.27-44.44,21.95c-14.79,14.76-22.24,31.51-22.32,50.32c-0.08,18.72,5.25,33.49,15.97,44.24l-21.26,21.22
			c-0.95-1.02-1.92-2.03-2.93-3.02c-17.4-17.19-42.56-26.73-75.34-28.8v-28.36h43.93v-22.6h-115.8v22.6h40.84v28.36
			c-22.47,1.1-41.02,5.69-55.58,13.76c-6.82,3.8-12.9,8.24-18.26,13.31l-16.5-16.46c10.72-10.75,16.05-25.52,15.97-44.24
			c-0.08-18.8-7.53-35.56-22.32-50.32c-13.71-13.68-28.49-20.99-44.44-21.95c-15.96-0.98-28.66,3.52-38.11,13.45l16.57,10.45
			c15.92-7.98,32.34-3.52,49.3,13.4c8.94,8.92,14.58,19.26,16.91,30.99c2.33,11.7-0.18,23.26-7.5,34.63l-57.22-57.08
			c-6.13-6.12-11.3-10.39-15.49-12.84c-4.21-2.48-8.86-3.18-14.11-2.21c-5.17,0.98-10.44,4.12-15.75,9.45
			c-8.24,8.26-13.26,16.65-15.08,25.18c-1.8,8.56-0.9,18.19,2.76,28.97c3.68,10.83,9.63,20.35,17.96,28.66
			c6.95,6.94,15.33,12.47,25.13,16.55c9.78,4.1,20.78,5.92,32.98,5.38c12.18-0.56,24.53-4.88,37.02-13.03l18.07,18.02
			c-0.6,0.97-1.19,1.96-1.76,2.97c-8.02,14.07-11.99,29.78-11.99,47.12c0,26.5,9.2,48.28,27.65,65.29
			c18.42,16.96,43.02,26.06,73.8,27.21v33.76h-40.84v22.6h115.8v-22.6h-43.93v-33.76c29.95-1.02,54.32-9.81,73.21-26.34
			c18.83-16.53,28.26-39.08,28.26-67.6c0-15.96-3.43-30.3-10.27-42.99l23.74-23.69c12.49,8.15,24.84,12.47,37.02,13.03
			c12.19,0.54,23.19-1.28,32.98-5.38c9.8-4.09,18.18-9.62,25.13-16.55c8.33-8.31,14.28-17.83,17.96-28.66
			C642.61,309.22,643.51,299.59,641.71,291.03z M228.71,349.86c-12.13-1.64-23.72-8.01-34.88-19.15
			c-10.36-10.33-15.99-19.79-16.95-28.31c-0.93-8.55,0.75-14.96,5.03-19.25c3.04-3.05,6.36-4.23,9.87-3.55s8.84,4.63,16.01,11.79
			l52.04,51.92C251.18,349.3,240.81,351.47,228.71,349.86z M330.51,474.61c-13.2-11.25-19.81-27.55-19.81-49.1
			c0-21.35,6.05-37.64,18.12-49.04c12.12-11.4,29.13-17.48,51.07-18.07v0.03v133.43C360.19,491.52,343.71,485.78,330.51,474.61z
			 M462.2,473.46c-12.33,11.61-29.47,17.71-51.27,18.37v-133.4c22.91,0,40.26,6.18,52.09,18.6c11.84,12.38,17.73,28.42,17.73,47.99
			C480.75,445.68,474.57,461.85,462.2,473.46z M623.12,302.39c-0.95,8.53-6.59,17.98-16.95,28.31
			c-11.17,11.14-22.76,17.51-34.88,19.15c-12.1,1.61-22.47-0.55-31.13-6.56l52.04-51.92c7.17-7.16,12.5-11.11,16.01-11.79
			c3.51-0.68,6.83,0.51,9.87,3.55C622.37,287.44,624.04,293.84,623.12,302.39z"/>
		<path class="st0" d="M200.64,239.07c0,0,0.01-0.01,0.01-0.01l0,0L200.64,239.07z"/>
	</g>
</g>
<g>
	<circle cx="-650" cy="400" r="388"/>
	<g>
		<path class="st1" d="M-450.65,239.05L-450.65,239.05c0,0,0.01,0.01,0.01,0.01L-450.65,239.05z"/>
		<path class="st1" d="M-408.29,291.03c-1.82-8.53-6.84-16.92-15.08-25.18c-5.31-5.33-10.59-8.47-15.75-9.45
			c-5.25-0.98-9.9-0.28-14.11,2.21c-4.18,2.45-9.35,6.72-15.49,12.84l-57.22,57.08c-7.32-11.37-9.83-22.93-7.5-34.63
			c2.33-11.73,7.97-22.07,16.91-30.99c16.96-16.92,33.38-21.38,49.3-13.4l16.57-10.45c-9.44-9.93-22.14-14.43-38.11-13.45
			c-15.94,0.95-30.73,8.27-44.44,21.95c-14.79,14.76-22.24,31.51-22.32,50.32c-0.08,18.72,5.25,33.49,15.97,44.24l-21.26,21.22
			c-0.95-1.02-1.92-2.03-2.93-3.02c-17.4-17.19-42.56-26.73-75.34-28.8v-28.36h43.93v-22.6h-115.8v22.6h40.84v28.36
			c-22.47,1.1-41.02,5.69-55.58,13.76c-6.82,3.8-12.9,8.24-18.26,13.31l-16.5-16.46c10.72-10.75,16.05-25.52,15.97-44.24
			c-0.08-18.8-7.53-35.56-22.32-50.32c-13.71-13.68-28.49-20.99-44.44-21.95c-15.96-0.98-28.66,3.52-38.11,13.45l16.57,10.45
			c15.92-7.98,32.34-3.52,49.3,13.4c8.94,8.92,14.58,19.26,16.91,30.99c2.33,11.7-0.18,23.26-7.5,34.63l-57.22-57.08
			c-6.13-6.12-11.3-10.39-15.49-12.84c-4.21-2.48-8.86-3.18-14.11-2.21c-5.17,0.98-10.44,4.12-15.75,9.45
			c-8.24,8.26-13.26,16.65-15.08,25.18c-1.8,8.56-0.9,18.19,2.76,28.97c3.68,10.83,9.63,20.35,17.96,28.66
			c6.95,6.94,15.33,12.47,25.13,16.55c9.78,4.1,20.78,5.92,32.98,5.38c12.18-0.56,24.53-4.88,37.02-13.03l18.07,18.02
			c-0.6,0.97-1.19,1.96-1.76,2.97c-8.02,14.07-11.99,29.78-11.99,47.12c0,26.5,9.2,48.28,27.65,65.29
			c18.42,16.96,43.02,26.06,73.8,27.21v33.76h-40.84v22.6h115.8v-22.6h-43.93v-33.76c29.95-1.02,54.32-9.81,73.21-26.34
			c18.83-16.53,28.26-39.08,28.26-67.6c0-15.96-3.43-30.3-10.27-42.99l23.74-23.69c12.49,8.15,24.84,12.47,37.02,13.03
			c12.19,0.54,23.19-1.28,32.98-5.38c9.8-4.09,18.18-9.62,25.13-16.55c8.33-8.31,14.28-17.83,17.96-28.66
			C-407.39,309.22-406.49,299.59-408.29,291.03z M-821.29,349.86c-12.13-1.64-23.72-8.01-34.88-19.15
			c-10.36-10.33-15.99-19.79-16.95-28.31c-0.93-8.55,0.75-14.96,5.03-19.25c3.04-3.05,6.36-4.23,9.87-3.55
			c3.51,0.68,8.84,4.63,16.01,11.79l52.04,51.92C-798.82,349.3-809.19,351.47-821.29,349.86z M-719.49,474.61
			c-13.2-11.25-19.81-27.55-19.81-49.1c0-21.35,6.05-37.64,18.12-49.04c12.12-11.4,29.13-17.48,51.07-18.07v0.03v133.43
			C-689.81,491.52-706.29,485.78-719.49,474.61z M-587.8,473.46c-12.33,11.61-29.47,17.71-51.27,18.37v-133.4
			c22.91,0,40.26,6.18,52.09,18.6c11.84,12.38,17.73,28.42,17.73,47.99C-569.25,445.68-575.43,461.85-587.8,473.46z M-426.88,302.39
			c-0.95,8.53-6.59,17.98-16.95,28.31c-11.16,11.14-22.75,17.51-34.88,19.15c-12.1,1.61-22.47-0.55-31.13-6.56l52.04-51.92
			c7.17-7.16,12.5-11.11,16.01-11.79c3.51-0.68,6.83,0.51,9.87,3.55C-427.63,287.44-425.96,293.84-426.88,302.39z"/>
		<path class="st1" d="M-849.36,239.07c0,0,0.01-0.01,0.01-0.01h0L-849.36,239.07z"/>
	</g>
</g>
<g>
	<circle cx="-1708" cy="400" r="388"/>
	<g>
		<path class="st2" d="M-1508.65,239.05L-1508.65,239.05c0,0,0.01,0.01,0.01,0.01L-1508.65,239.05z"/>
		<path class="st2" d="M-1466.29,291.03c-1.82-8.53-6.84-16.92-15.08-25.18c-5.31-5.33-10.59-8.47-15.75-9.45
			c-5.25-0.98-9.9-0.28-14.11,2.21c-4.18,2.45-9.35,6.72-15.49,12.84l-57.22,57.08c-7.32-11.37-9.83-22.93-7.5-34.63
			c2.33-11.73,7.97-22.07,16.91-30.99c16.96-16.92,33.38-21.38,49.3-13.4l16.57-10.45c-9.44-9.93-22.14-14.43-38.11-13.45
			c-15.94,0.95-30.73,8.27-44.44,21.95c-14.79,14.76-22.24,31.51-22.32,50.32c-0.08,18.72,5.25,33.49,15.97,44.24l-21.27,21.22
			c-0.95-1.02-1.92-2.03-2.93-3.02c-17.4-17.19-42.56-26.73-75.34-28.8v-28.36h43.93v-22.6h-115.8v22.6h40.84v28.36
			c-22.47,1.1-41.02,5.69-55.58,13.76c-6.82,3.8-12.9,8.24-18.26,13.31l-16.5-16.46c10.72-10.75,16.05-25.52,15.97-44.24
			c-0.08-18.8-7.53-35.56-22.32-50.32c-13.71-13.68-28.49-20.99-44.44-21.95c-15.96-0.98-28.66,3.52-38.11,13.45l16.57,10.45
			c15.92-7.98,32.34-3.52,49.3,13.4c8.94,8.92,14.58,19.26,16.91,30.99c2.33,11.7-0.18,23.26-7.5,34.63l-57.22-57.08
			c-6.13-6.12-11.3-10.39-15.49-12.84c-4.21-2.48-8.86-3.18-14.11-2.21c-5.17,0.98-10.44,4.12-15.75,9.45
			c-8.24,8.26-13.26,16.65-15.08,25.18c-1.8,8.56-0.9,18.19,2.76,28.97c3.68,10.83,9.63,20.35,17.96,28.66
			c6.95,6.94,15.33,12.47,25.13,16.55c9.78,4.1,20.78,5.92,32.98,5.38c12.18-0.56,24.53-4.88,37.02-13.03l18.07,18.02
			c-0.6,0.97-1.19,1.96-1.76,2.97c-8.02,14.07-11.99,29.78-11.99,47.12c0,26.5,9.2,48.28,27.65,65.29
			c18.42,16.96,43.02,26.06,73.8,27.21v33.76h-40.84v22.6h115.8v-22.6h-43.93v-33.76c29.95-1.02,54.32-9.81,73.21-26.34
			c18.83-16.53,28.26-39.08,28.26-67.6c0-15.96-3.43-30.3-10.27-42.99l23.74-23.69c12.49,8.15,24.84,12.47,37.02,13.03
			c12.19,0.54,23.19-1.28,32.98-5.38c9.8-4.09,18.18-9.62,25.13-16.55c8.33-8.31,14.28-17.83,17.96-28.66
			C-1465.39,309.22-1464.49,299.59-1466.29,291.03z M-1879.29,349.86c-12.13-1.64-23.72-8.01-34.88-19.15
			c-10.36-10.33-15.99-19.79-16.95-28.31c-0.93-8.55,0.75-14.96,5.03-19.25c3.04-3.05,6.36-4.23,9.87-3.55s8.84,4.63,16.01,11.79
			l52.04,51.92C-1856.82,349.3-1867.19,351.47-1879.29,349.86z M-1777.49,474.61c-13.2-11.25-19.81-27.55-19.81-49.1
			c0-21.35,6.05-37.64,18.12-49.04c12.12-11.4,29.13-17.48,51.07-18.07v0.03v133.43C-1747.81,491.52-1764.29,485.78-1777.49,474.61z
			 M-1645.8,473.46c-12.33,11.61-29.47,17.71-51.27,18.37v-133.4c22.91,0,40.26,6.18,52.09,18.6
			c11.84,12.38,17.73,28.42,17.73,47.99C-1627.25,445.68-1633.43,461.85-1645.8,473.46z M-1484.88,302.39
			c-0.95,8.53-6.59,17.98-16.95,28.31c-11.17,11.14-22.75,17.51-34.88,19.15c-12.1,1.61-22.47-0.55-31.13-6.56l52.04-51.92
			c7.17-7.16,12.5-11.11,16.01-11.79s6.83,0.51,9.87,3.55C-1485.63,287.44-1483.96,293.84-1484.88,302.39z"/>
		<path class="st2" d="M-1907.36,239.07c0,0,0.01-0.01,0.01-0.01l0,0L-1907.36,239.07z"/>
	</g>
</g>
</svg>
